<svg width="67" height="44" viewBox="0 0 67 44" fill="none" xmlns="http://www.w3.org/2000/svg">
<path d="M6.56 18.1C7.11333 18.1 7.6 18.0267 8.02 17.88C8.44667 17.7333 8.80333 17.53 9.09 17.27C9.38333 17.0033 9.60333 16.6867 9.75 16.32C9.89667 15.9533 9.97 15.55 9.97 15.11C9.97 14.1967 9.68667 13.4833 9.12 12.97C8.56 12.4567 7.70667 12.2 6.56 12.2H4.26V18.1H6.56ZM6.56 10.67C7.46667 10.67 8.25333 10.7767 8.92 10.99C9.59333 11.1967 10.15 11.4933 10.59 11.88C11.03 12.2667 11.3567 12.7333 11.57 13.28C11.79 13.8267 11.9 14.4367 11.9 15.11C11.9 15.7767 11.7833 16.3867 11.55 16.94C11.3167 17.4933 10.9733 17.97 10.52 18.37C10.0733 18.77 9.51667 19.0833 8.85 19.31C8.19 19.53 7.42667 19.64 6.56 19.64H4.26V25H2.33V10.67H6.56ZM18.8992 20.44C18.0792 20.4667 17.3792 20.5333 16.7992 20.64C16.2259 20.74 15.7559 20.8733 15.3892 21.04C15.0292 21.2067 14.7659 21.4033 14.5992 21.63C14.4392 21.8567 14.3592 22.11 14.3592 22.39C14.3592 22.6567 14.4026 22.8867 14.4892 23.08C14.5759 23.2733 14.6926 23.4333 14.8392 23.56C14.9926 23.68 15.1692 23.77 15.3692 23.83C15.5759 23.8833 15.7959 23.91 16.0292 23.91C16.3426 23.91 16.6292 23.88 16.8892 23.82C17.1492 23.7533 17.3926 23.66 17.6192 23.54C17.8526 23.42 18.0726 23.2767 18.2792 23.11C18.4926 22.9433 18.6992 22.7533 18.8992 22.54V20.44ZM13.1492 16.3C13.7092 15.76 14.3126 15.3567 14.9592 15.09C15.6059 14.8233 16.3226 14.69 17.1092 14.69C17.6759 14.69 18.1792 14.7833 18.6192 14.97C19.0592 15.1567 19.4292 15.4167 19.7292 15.75C20.0292 16.0833 20.2559 16.4867 20.4092 16.96C20.5626 17.4333 20.6392 17.9533 20.6392 18.52V25H19.8492C19.6759 25 19.5426 24.9733 19.4492 24.92C19.3559 24.86 19.2826 24.7467 19.2292 24.58L19.0292 23.62C18.7626 23.8667 18.5026 24.0867 18.2492 24.28C17.9959 24.4667 17.7292 24.6267 17.4492 24.76C17.1692 24.8867 16.8692 24.9833 16.5492 25.05C16.2359 25.1233 15.8859 25.16 15.4992 25.16C15.1059 25.16 14.7359 25.1067 14.3892 25C14.0426 24.8867 13.7392 24.72 13.4792 24.5C13.2259 24.28 13.0226 24.0033 12.8692 23.67C12.7226 23.33 12.6492 22.93 12.6492 22.47C12.6492 22.07 12.7592 21.6867 12.9792 21.32C13.1992 20.9467 13.5559 20.6167 14.0492 20.33C14.5426 20.0433 15.1859 19.81 15.9792 19.63C16.7726 19.4433 17.7459 19.3367 18.8992 19.31V18.52C18.8992 17.7333 18.7292 17.14 18.3892 16.74C18.0492 16.3333 17.5526 16.13 16.8992 16.13C16.4592 16.13 16.0892 16.1867 15.7892 16.3C15.4959 16.4067 15.2392 16.53 15.0192 16.67C14.8059 16.8033 14.6192 16.9267 14.4592 17.04C14.3059 17.1467 14.1526 17.2 13.9992 17.2C13.8792 17.2 13.7759 17.17 13.6892 17.11C13.6026 17.0433 13.5292 16.9633 13.4692 16.87L13.1492 16.3ZM24.8406 16.9C25.1606 16.2067 25.554 15.6667 26.0206 15.28C26.4873 14.8867 27.0573 14.69 27.7306 14.69C27.944 14.69 28.1473 14.7133 28.3406 14.76C28.5406 14.8067 28.7173 14.88 28.8706 14.98L28.7406 16.31C28.7006 16.4767 28.6006 16.56 28.4406 16.56C28.3473 16.56 28.2106 16.54 28.0306 16.5C27.8506 16.46 27.6473 16.44 27.4206 16.44C27.1006 16.44 26.814 16.4867 26.5606 16.58C26.314 16.6733 26.0906 16.8133 25.8906 17C25.6973 17.18 25.5206 17.4067 25.3606 17.68C25.2073 17.9467 25.0673 18.2533 24.9406 18.6V25H23.1506V14.87H24.1706C24.364 14.87 24.4973 14.9067 24.5706 14.98C24.644 15.0533 24.694 15.18 24.7206 15.36L24.8406 16.9ZM33.3458 25.16C32.5458 25.16 31.9291 24.9367 31.4958 24.49C31.0691 24.0433 30.8558 23.4 30.8558 22.56V16.36H29.6358C29.5291 16.36 29.4391 16.33 29.3658 16.27C29.2924 16.2033 29.2558 16.1033 29.2558 15.97V15.26L30.9158 15.05L31.3258 11.92C31.3458 11.82 31.3891 11.74 31.4558 11.68C31.5291 11.6133 31.6224 11.58 31.7358 11.58H32.6358V15.07H35.5658V16.36H32.6358V22.44C32.6358 22.8667 32.7391 23.1833 32.9458 23.39C33.1524 23.5967 33.4191 23.7 33.7458 23.7C33.9324 23.7 34.0924 23.6767 34.2258 23.63C34.3658 23.5767 34.4858 23.52 34.5858 23.46C34.6858 23.4 34.7691 23.3467 34.8358 23.3C34.9091 23.2467 34.9724 23.22 35.0258 23.22C35.1191 23.22 35.2024 23.2767 35.2758 23.39L35.7958 24.24C35.4891 24.5267 35.1191 24.7533 34.6858 24.92C34.2524 25.08 33.8058 25.16 33.3458 25.16ZM38.8838 16.34C39.1038 16.0933 39.3371 15.87 39.5838 15.67C39.8304 15.47 40.0904 15.3 40.3638 15.16C40.6438 15.0133 40.9371 14.9033 41.2438 14.83C41.5571 14.75 41.8938 14.71 42.2538 14.71C42.8071 14.71 43.2938 14.8033 43.7138 14.99C44.1404 15.17 44.4938 15.43 44.7738 15.77C45.0604 16.1033 45.2771 16.5067 45.4238 16.98C45.5704 17.4533 45.6438 17.9767 45.6438 18.55V25H43.8538V18.55C43.8538 17.7833 43.6771 17.19 43.3238 16.77C42.9771 16.3433 42.4471 16.13 41.7338 16.13C41.2071 16.13 40.7138 16.2567 40.2538 16.51C39.8004 16.7633 39.3804 17.1067 38.9938 17.54V25H37.2038V14.87H38.2738C38.5271 14.87 38.6838 14.9933 38.7438 15.24L38.8838 16.34ZM54.9361 18.83C54.9361 18.4167 54.8761 18.04 54.7561 17.7C54.6428 17.3533 54.4728 17.0567 54.2461 16.81C54.0261 16.5567 53.7561 16.3633 53.4361 16.23C53.1161 16.09 52.7528 16.02 52.3461 16.02C51.4928 16.02 50.8161 16.27 50.3161 16.77C49.8228 17.2633 49.5161 17.95 49.3961 18.83H54.9361ZM56.3761 23.58C56.1561 23.8467 55.8928 24.08 55.5861 24.28C55.2794 24.4733 54.9494 24.6333 54.5961 24.76C54.2494 24.8867 53.8894 24.98 53.5161 25.04C53.1428 25.1067 52.7728 25.14 52.4061 25.14C51.7061 25.14 51.0594 25.0233 50.4661 24.79C49.8794 24.55 49.3694 24.2033 48.9361 23.75C48.5094 23.29 48.1761 22.7233 47.9361 22.05C47.6961 21.3767 47.5761 20.6033 47.5761 19.73C47.5761 19.0233 47.6828 18.3633 47.8961 17.75C48.1161 17.1367 48.4294 16.6067 48.8361 16.16C49.2428 15.7067 49.7394 15.3533 50.3261 15.1C50.9128 14.84 51.5728 14.71 52.3061 14.71C52.9128 14.71 53.4728 14.8133 53.9861 15.02C54.5061 15.22 54.9528 15.5133 55.3261 15.9C55.7061 16.28 56.0028 16.7533 56.2161 17.32C56.4294 17.88 56.5361 18.52 56.5361 19.24C56.5361 19.52 56.5061 19.7067 56.4461 19.8C56.3861 19.8933 56.2728 19.94 56.1061 19.94H49.3361C49.3561 20.58 49.4428 21.1367 49.5961 21.61C49.7561 22.0833 49.9761 22.48 50.2561 22.8C50.5361 23.1133 50.8694 23.35 51.2561 23.51C51.6428 23.6633 52.0761 23.74 52.5561 23.74C53.0028 23.74 53.3861 23.69 53.7061 23.59C54.0328 23.4833 54.3128 23.37 54.5461 23.25C54.7794 23.13 54.9728 23.02 55.1261 22.92C55.2861 22.8133 55.4228 22.76 55.5361 22.76C55.6828 22.76 55.7961 22.8167 55.8761 22.93L56.3761 23.58ZM60.2125 16.9C60.5325 16.2067 60.9258 15.6667 61.3925 15.28C61.8592 14.8867 62.4292 14.69 63.1025 14.69C63.3158 14.69 63.5192 14.7133 63.7125 14.76C63.9125 14.8067 64.0892 14.88 64.2425 14.98L64.1125 16.31C64.0725 16.4767 63.9725 16.56 63.8125 16.56C63.7192 16.56 63.5825 16.54 63.4025 16.5C63.2225 16.46 63.0192 16.44 62.7925 16.44C62.4725 16.44 62.1858 16.4867 61.9325 16.58C61.6858 16.6733 61.4625 16.8133 61.2625 17C61.0692 17.18 60.8925 17.4067 60.7325 17.68C60.5792 17.9467 60.4392 18.2533 60.3125 18.6V25H58.5225V14.87H59.5425C59.7358 14.87 59.8692 14.9067 59.9425 14.98C60.0158 15.0533 60.0658 15.18 60.0925 15.36L60.2125 16.9Z" fill="white"/>
<line x1="18.5" y1="43" x2="48.5" y2="43" stroke="#A04038" stroke-width="2"/>
</svg>
